<?xml version="1.0" encoding="utf-8"?>
<!-- Svg Vector Icons : http://www.onlinewebfonts.com/icon -->
<!DOCTYPE svg PUBLIC "-//W3C//DTD SVG 1.1//EN" "http://www.w3.org/Graphics/SVG/1.1/DTD/svg11.dtd">
<svg version="1.1" xmlns="http://www.w3.org/2000/svg" xmlns:xlink="http://www.w3.org/1999/xlink" x="0px" y="0px" viewBox="0 0 1000 1000" enable-background="new 0 0 1000 1000" xml:space="preserve">
<metadata> Svg Vector Icons : http://www.onlinewebfonts.com/icon </metadata>
<g><path d="M859.3,660.8c0-30-25-54.3-55.9-54.3h-6.2c-28,0-51.1,19.9-55.2,46V603c0-30-25-54.3-55.9-54.3h-6.2c-28,0-51.1,19.9-55.2,46v-51.4c0-30-25-54.3-55.9-54.3h-6.2c-28,0-51.1,19.9-55.2,46l0-221.4c0-30-25-54.3-55.9-54.3H445c-30.9,0-55.9,24.3-55.9,54.3v480.3l-91.8-89.1c-21.8-21.2-57.2-21.2-79.1,0l-4.4,4.3c-21.8,21.2-21.8,55.6,0,76.8l172.1,189c8.1,9.4,20.2,15.3,33.8,15.3h394.8c24.4,0,44.1-19.2,44.1-42.8c0-0.4,0-0.7,0-1l0.6,0L859.3,660.8L859.3,660.8z"/><path d="M250,279.6L250,279.6c-17.9,0-92.7,0-109.3,0l0,0H250z"/><path d="M449.3,10L449.3,10c0,17.4,0,90,0,106.1l0,0V10z"/><path d="M327.5,171.8L327.5,171.8c-12.7-12.3-65.6-63.7-77.3-75l0,0L327.5,171.8z"/><path d="M755.1,279.6L755.1,279.6c-17.9,0-92.7,0-109.3,0l0,0H755.1z"/><path d="M645.6,96.8L645.6,96.8c-12.7,12.3-65.6,63.7-77.3,75l0,0L645.6,96.8z"/></g>
</svg>